<svg width="24" height="24" viewBox="0 0 24 24" fill="none" xmlns="http://www.w3.org/2000/svg">
<path d="M16.99 8.95996H7.01001" stroke="url(#paint0_linear_53_284)" stroke-width="1.5" stroke-linecap="round" stroke-linejoin="round"/>
<path d="M12 7.28003V8.96002" stroke="url(#paint1_linear_53_284)" stroke-width="1.5" stroke-linecap="round" stroke-linejoin="round"/>
<path d="M14.5 8.93994C14.5 13.2399 11.14 16.7199 7 16.7199" stroke="url(#paint2_linear_53_284)" stroke-width="1.5" stroke-linecap="round" stroke-linejoin="round"/>
<path d="M16.9999 16.72C15.1999 16.72 13.6 15.76 12.45 14.25" stroke="url(#paint3_linear_53_284)" stroke-width="1.5" stroke-linecap="round" stroke-linejoin="round"/>
<path d="M9 22H15C20 22 22 20 22 15V9C22 4 20 2 15 2H9C4 2 2 4 2 9V15C2 20 4 22 9 22Z" stroke="url(#paint4_linear_53_284)" stroke-width="1.5" stroke-linecap="round" stroke-linejoin="round"/>
<defs>
<linearGradient id="paint0_linear_53_284" x1="12" y1="8.95996" x2="12" y2="9.95996" gradientUnits="userSpaceOnUse">
<stop stop-color="#ACDCDC"/>
<stop offset="1" stop-color="#03888F"/>
</linearGradient>
<linearGradient id="paint1_linear_53_284" x1="12.5" y1="7.28003" x2="12.5" y2="8.96002" gradientUnits="userSpaceOnUse">
<stop stop-color="#ACDCDC"/>
<stop offset="1" stop-color="#03888F"/>
</linearGradient>
<linearGradient id="paint2_linear_53_284" x1="10.75" y1="8.93994" x2="10.75" y2="16.7199" gradientUnits="userSpaceOnUse">
<stop stop-color="#ACDCDC"/>
<stop offset="1" stop-color="#03888F"/>
</linearGradient>
<linearGradient id="paint3_linear_53_284" x1="14.7249" y1="14.25" x2="14.7249" y2="16.72" gradientUnits="userSpaceOnUse">
<stop stop-color="#ACDCDC"/>
<stop offset="1" stop-color="#03888F"/>
</linearGradient>
<linearGradient id="paint4_linear_53_284" x1="12" y1="2" x2="12" y2="22" gradientUnits="userSpaceOnUse">
<stop stop-color="#ACDCDC"/>
<stop offset="1" stop-color="#03888F"/>
</linearGradient>
</defs>
</svg>
