<svg width="364" height="62" viewBox="0 0 364 62" fill="none" xmlns="http://www.w3.org/2000/svg">
<path d="M78.992 12.736V39.76H91.952L91.136 46H71.12V12.736H78.992ZM116.386 46H109.81L109.474 42.784C107.618 45.472 105.042 46.816 101.746 46.816C99.4103 46.816 97.6343 46.112 96.4183 44.704C95.2343 43.296 94.6423 41.328 94.6423 38.8V20.512H102.226V37.84C102.226 39.088 102.418 39.968 102.802 40.48C103.218 40.96 103.842 41.2 104.674 41.2C106.274 41.2 107.65 40.208 108.802 38.224V20.512H116.386V46ZM133.391 19.696C135.151 19.696 136.735 19.952 138.143 20.464C139.551 20.976 140.879 21.76 142.127 22.816L138.863 27.328C137.263 26.112 135.647 25.504 134.015 25.504C132.319 25.504 131.039 26.128 130.175 27.376C129.311 28.624 128.879 30.64 128.879 33.424C128.879 36.112 129.311 38.016 130.175 39.136C131.039 40.256 132.287 40.816 133.919 40.816C134.783 40.816 135.567 40.688 136.271 40.432C136.975 40.144 137.823 39.696 138.815 39.088L142.127 43.792C139.599 45.808 136.735 46.816 133.535 46.816C130.943 46.816 128.703 46.272 126.815 45.184C124.927 44.064 123.471 42.512 122.447 40.528C121.423 38.512 120.911 36.16 120.911 33.472C120.911 30.784 121.423 28.4 122.447 26.32C123.471 24.24 124.927 22.624 126.815 21.472C128.703 20.288 130.895 19.696 133.391 19.696ZM165.107 38.608C165.107 39.568 165.235 40.272 165.491 40.72C165.779 41.168 166.227 41.504 166.835 41.728L165.251 46.672C163.683 46.544 162.403 46.208 161.411 45.664C160.419 45.088 159.651 44.192 159.107 42.976C157.443 45.536 154.883 46.816 151.427 46.816C148.899 46.816 146.883 46.08 145.379 44.608C143.875 43.136 143.123 41.216 143.123 38.848C143.123 36.064 144.147 33.936 146.195 32.464C148.243 30.992 151.203 30.256 155.075 30.256H157.667V29.152C157.667 27.648 157.347 26.624 156.707 26.08C156.067 25.504 154.947 25.216 153.347 25.216C152.515 25.216 151.507 25.344 150.323 25.6C149.139 25.824 147.923 26.144 146.675 26.56L144.947 21.568C146.547 20.96 148.179 20.496 149.843 20.176C151.539 19.856 153.107 19.696 154.547 19.696C158.195 19.696 160.867 20.448 162.563 21.952C164.259 23.456 165.107 25.712 165.107 28.72V38.608ZM153.635 41.392C155.363 41.392 156.707 40.576 157.667 38.944V34.432H155.795C154.067 34.432 152.771 34.736 151.907 35.344C151.075 35.952 150.659 36.896 150.659 38.176C150.659 39.2 150.915 40 151.427 40.576C151.971 41.12 152.707 41.392 153.635 41.392ZM179.655 19.696C181.479 19.696 183.191 19.968 184.791 20.512C186.391 21.056 187.799 21.824 189.015 22.816L186.231 27.088C184.151 25.776 182.055 25.12 179.943 25.12C178.951 25.12 178.183 25.296 177.639 25.648C177.127 25.968 176.871 26.432 176.871 27.04C176.871 27.52 176.983 27.92 177.207 28.24C177.463 28.528 177.959 28.832 178.695 29.152C179.431 29.472 180.567 29.856 182.103 30.304C184.759 31.072 186.727 32.08 188.007 33.328C189.319 34.544 189.975 36.24 189.975 38.416C189.975 40.144 189.479 41.648 188.487 42.928C187.495 44.176 186.135 45.136 184.407 45.808C182.679 46.48 180.759 46.816 178.647 46.816C176.503 46.816 174.503 46.48 172.647 45.808C170.823 45.136 169.271 44.208 167.991 43.024L171.687 38.896C173.831 40.56 176.087 41.392 178.455 41.392C179.607 41.392 180.503 41.184 181.143 40.768C181.815 40.352 182.151 39.76 182.151 38.992C182.151 38.384 182.023 37.904 181.767 37.552C181.511 37.2 181.015 36.88 180.279 36.592C179.543 36.272 178.375 35.888 176.775 35.44C174.247 34.704 172.359 33.68 171.111 32.368C169.863 31.056 169.239 29.424 169.239 27.472C169.239 26 169.655 24.688 170.487 23.536C171.351 22.352 172.567 21.424 174.135 20.752C175.735 20.048 177.575 19.696 179.655 19.696ZM213.289 12.736V46H205.417V12.736H213.289ZM232.393 12.736L221.785 27.664L233.257 46H224.137L213.529 28.24L224.089 12.736H232.393ZM243.232 20.512V46H235.648V20.512H243.232ZM239.392 7.072C240.704 7.072 241.776 7.488 242.608 8.32C243.472 9.12 243.904 10.144 243.904 11.392C243.904 12.64 243.472 13.68 242.608 14.512C241.776 15.312 240.704 15.712 239.392 15.712C238.08 15.712 237.008 15.312 236.176 14.512C235.344 13.68 234.928 12.64 234.928 11.392C234.928 10.144 235.344 9.12 236.176 8.32C237.008 7.488 238.08 7.072 239.392 7.072ZM263.259 46.048C262.235 49.344 260.555 51.872 258.219 53.632C255.915 55.424 252.811 56.432 248.907 56.656L248.091 51.328C250.523 51.008 252.315 50.464 253.467 49.696C254.651 48.928 255.595 47.696 256.299 46H253.707L245.931 20.512H253.995L258.555 41.152L263.547 20.512H271.371L263.259 46.048ZM284.704 19.696C288.608 19.696 291.664 20.896 293.872 23.296C296.08 25.664 297.184 28.992 297.184 33.28C297.184 36 296.672 38.384 295.648 40.432C294.656 42.448 293.216 44.016 291.328 45.136C289.472 46.256 287.264 46.816 284.704 46.816C280.832 46.816 277.776 45.632 275.536 43.264C273.328 40.864 272.224 37.52 272.224 33.232C272.224 30.512 272.72 28.144 273.712 26.128C274.736 24.08 276.176 22.496 278.032 21.376C279.92 20.256 282.144 19.696 284.704 19.696ZM284.704 25.264C283.168 25.264 282.016 25.92 281.248 27.232C280.48 28.512 280.096 30.512 280.096 33.232C280.096 36.016 280.464 38.048 281.2 39.328C281.968 40.608 283.136 41.248 284.704 41.248C286.24 41.248 287.392 40.608 288.16 39.328C288.928 38.016 289.312 36 289.312 33.28C289.312 30.496 288.928 28.464 288.16 27.184C287.424 25.904 286.272 25.264 284.704 25.264ZM310.671 19.696C312.495 19.696 314.207 19.968 315.807 20.512C317.407 21.056 318.815 21.824 320.031 22.816L317.247 27.088C315.167 25.776 313.071 25.12 310.959 25.12C309.967 25.12 309.199 25.296 308.655 25.648C308.143 25.968 307.887 26.432 307.887 27.04C307.887 27.52 307.999 27.92 308.223 28.24C308.479 28.528 308.975 28.832 309.711 29.152C310.447 29.472 311.583 29.856 313.119 30.304C315.775 31.072 317.743 32.08 319.023 33.328C320.335 34.544 320.991 36.24 320.991 38.416C320.991 40.144 320.495 41.648 319.503 42.928C318.511 44.176 317.151 45.136 315.423 45.808C313.695 46.48 311.775 46.816 309.663 46.816C307.519 46.816 305.519 46.48 303.663 45.808C301.839 45.136 300.287 44.208 299.007 43.024L302.703 38.896C304.847 40.56 307.103 41.392 309.471 41.392C310.623 41.392 311.519 41.184 312.159 40.768C312.831 40.352 313.167 39.76 313.167 38.992C313.167 38.384 313.039 37.904 312.783 37.552C312.527 37.2 312.031 36.88 311.295 36.592C310.559 36.272 309.391 35.888 307.791 35.44C305.263 34.704 303.375 33.68 302.127 32.368C300.879 31.056 300.255 29.424 300.255 27.472C300.255 26 300.671 24.688 301.503 23.536C302.367 22.352 303.583 21.424 305.151 20.752C306.751 20.048 308.591 19.696 310.671 19.696ZM339.826 19.696C342.034 19.696 343.762 20.368 345.01 21.712C346.258 23.056 346.882 24.944 346.882 27.376V46H339.298V28.672C339.298 27.392 339.09 26.512 338.674 26.032C338.258 25.52 337.666 25.264 336.898 25.264C335.362 25.264 333.89 26.352 332.482 28.528V46H324.898V10.384L332.482 9.616V23.248C333.538 22.064 334.658 21.184 335.842 20.608C337.026 20 338.354 19.696 339.826 19.696ZM360.185 20.512V46H352.601V20.512H360.185ZM356.345 7.072C357.657 7.072 358.729 7.488 359.561 8.32C360.425 9.12 360.857 10.144 360.857 11.392C360.857 12.64 360.425 13.68 359.561 14.512C358.729 15.312 357.657 15.712 356.345 15.712C355.033 15.712 353.961 15.312 353.129 14.512C352.297 13.68 351.881 12.64 351.881 11.392C351.881 10.144 352.297 9.12 353.129 8.32C353.961 7.488 355.033 7.072 356.345 7.072Z" fill="#141414"/>
<path d="M1.92 30.976V27.424L16.608 21.088V24.928L6.48 29.2L16.608 33.472V37.312L1.92 30.976ZM32.8988 12.4H37.4588L24.2108 46H19.6508L32.8988 12.4ZM40.467 33.472L50.595 29.2L40.467 24.928V21.088L55.155 27.424V30.976L40.467 37.312V33.472Z" fill="#03888F"/>
</svg>
